# xmcd
#
# Track frame offsets:
#  150
#  33071
#  81503
#  124723
#  154515
#  203977
#  222247
#  258810
#  305721
#
# Disc length: 4504 seconds
#
# Revision: 0
# Processed by: cddbd v1.5.1PL2 Copyright (c) Steve Scherf et al.
# Submitted via: Collectorz.com_Music_Collector 6.9
#
DISCID=74119609
DTITLE=Blue Note - The Best Blue Note Album
DYEAR=1900
DGENRE=Jazz
TTITLE0=Song for My Father - Horace Silver
TTITLE1=Blue Train - John Coltrane
TTITLE2=Moanin' - Art Blakey and the Jazz Messengers
TTITLE3=Blues Walk - Lou Donaldson
TTITLE4=Autum Leaves - Cannonball Adderley
TTITLE5=Midnight Blue - Kenny Burrell
TTITLE6=Back at the Chicken Shack - Jimmy Smith
TTITLE7=The Sidewinder - Lee Morgan
TTITLE8=Watermelon Man - Herbie Hancock
EXTD=
EXTT0=
EXTT1=
EXTT2=
EXTT3=
EXTT4=
EXTT5=
EXTT6=
EXTT7=
EXTT8=
PLAYORDER=
